<svg width="128" height="128" viewBox="0 0 128 128" fill="none" xmlns="http://www.w3.org/2000/svg">
<circle cx="64" cy="64" r="55.2574" transform="rotate(-0.655188 64 64)" fill="#0F0F0F"/>
<path fill-rule="evenodd" clip-rule="evenodd" d="M56.7049 40.753C56.7049 40.0612 56.1433 39.5 55.452 39.5H46.0605C42.9225 39.5 40.375 42.0475 40.375 45.1851V82.8038C40.375 85.9415 42.9225 88.4893 46.0605 88.4893H55.452C56.1433 88.4893 56.7049 87.9277 56.7049 87.2364V40.753ZM83.8695 71.7484C82.4923 69.2774 79.368 67.2711 76.897 67.2711H62.5192C61.7589 67.2711 61.4857 67.8884 61.9094 68.6487L70.477 84.0224C71.8542 86.4938 74.9785 88.5 77.4496 88.5H91.827C92.5873 88.5 92.8608 87.8827 92.4368 87.122L83.8695 71.7484ZM84.4688 50.9306C84.4688 44.6219 79.3469 39.5 73.0379 39.5H62.9519C62.2097 39.5 61.6073 40.1024 61.6073 40.8447V61.0165C61.6073 61.7588 62.2097 62.3616 62.9519 62.3616H73.0379C79.3469 62.3616 84.4688 57.2396 84.4688 50.9306Z" fill="#FAF0E4"/>
</svg>
