<svg width="487" height="458" viewBox="0 0 487 458" fill="none" xmlns="http://www.w3.org/2000/svg">
<path fill-rule="evenodd" clip-rule="evenodd" d="M155.969 21.1999C155.969 15.0166 150.949 10 144.77 10H60.8215C32.771 10 10 32.771 10 60.818V397.083C10 425.13 32.771 447.905 60.8215 447.905H144.77C150.949 447.905 155.969 442.885 155.969 436.705V21.1999ZM398.788 298.261C386.477 276.173 358.549 258.24 336.461 258.24H207.942C201.145 258.24 198.704 263.758 202.491 270.554L279.075 407.975C291.385 430.067 319.313 448 341.401 448H469.917C476.714 448 479.159 442.482 475.368 435.683L398.788 298.261ZM404.145 112.175C404.145 55.7838 358.361 10 301.966 10H211.81C205.175 10 199.79 15.3845 199.79 22.0196V202.331C199.79 208.966 205.175 214.354 211.81 214.354H301.966C358.361 214.354 404.145 168.571 404.145 112.175Z" fill="url(#paint0_linear_532_90)"/>
<defs>
<linearGradient id="paint0_linear_532_90" x1="243.577" y1="10" x2="243.577" y2="448" gradientUnits="userSpaceOnUse">
<stop stop-color="white"/>
<stop offset="1" stop-color="white" stop-opacity="0.7"/>
</linearGradient>
</defs>
</svg>
